<?xml version="1.0" encoding="UTF-8" standalone="no"?>
<svg
   xmlns:dc="http://purl.org/dc/elements/1.1/"
   xmlns:cc="http://creativecommons.org/ns#"
   xmlns:rdf="http://www.w3.org/1999/02/22-rdf-syntax-ns#"
   xmlns:svg="http://www.w3.org/2000/svg"
   xmlns="http://www.w3.org/2000/svg"
   xmlns:xlink="http://www.w3.org/1999/xlink"
   id="svg37"
   height="640"
   width="640"
   viewBox="0 0 640 640"
   preserveAspectRatio="xMidYMid meet"
   version="1.1">
  <metadata
     id="metadata41">
    <rdf:RDF>
      <cc:Work
         rdf:about="">
        <dc:format>image/svg+xml</dc:format>
        <dc:type
           rdf:resource="http://purl.org/dc/dcmitype/StillImage" />
      </cc:Work>
    </rdf:RDF>
  </metadata>
  <defs
     id="defs7">
    <path
       id="elKwM4xuD"
       d="M297.43 94.49C242.01 98.8 208.28 135.74 219.72 179.23C220.9 183.92 221.49 188.04 220.9 188.6C220.31 189.17 216.76 187.67 213.21 185.04C204.73 178.86 186.19 170.98 170.21 166.67C140.82 158.61 102.95 164.23 78.49 180.36C62.71 190.85 60.94 192.35 54.03 201.54C35.89 225.16 32.73 249.35 44.76 271.1C53.84 287.59 83.03 305.59 108.67 310.28C117.15 311.97 115.18 313.84 99.99 318.9C63.11 331.09 45.75 346.27 39.04 371.96C36.48 381.9 36.08 385.83 37.86 389.39C39.04 391.83 40.03 395.96 40.03 398.58C40.03 406.27 48.9 420.7 61.92 433.83C68.63 440.58 74.94 446.2 75.73 446.2C76.52 446.2 80.66 448.08 84.8 450.51C119.52 470.01 167.45 468.32 205.91 446.2C219.32 438.51 223.86 438.89 219.92 447.14C216.76 453.51 216.96 473.2 220.11 482.76C226.43 502.44 245.56 519.32 269.23 526.63C277.12 529.07 285.6 531.69 287.97 532.63C295.07 535.07 330.18 536.38 341.81 534.5C377.71 528.88 399.41 517.63 414 497.57C414.52 496.86 417.08 493.3 421.7 486.88C421.7 472.49 421.7 464.49 421.7 462.89C421.7 449.58 422.09 438.7 422.68 438.7C423.28 438.7 428.21 441.51 433.93 445.08C445.17 452.2 467.46 460.64 477.91 461.95C481.66 462.32 488.96 463.26 493.89 464.01C503.95 465.51 527.42 462.51 541.03 458.01C563.71 450.33 587.19 430.45 597.84 410.2C604.54 396.89 605.14 370.46 598.82 359.59C593.5 350.4 586.99 343.27 578.51 337.09C570.42 331.46 549.31 320.59 546.16 320.59C544.98 320.59 540.04 318.72 535.11 316.65C534.52 316.39 531.56 315.08 526.24 312.72C534.52 310.02 539.12 308.52 540.04 308.22C569.04 298.84 585.02 288.53 596.46 271.66C602.57 262.47 602.97 260.97 603.16 244.47C603.16 228.16 602.77 226.29 596.26 214.66C588.37 200.23 570.81 183.73 555.03 175.48C518.35 156.73 470.22 159.36 434.12 182.23C428.01 186.17 422.68 189.35 422.29 189.35C421.89 189.35 421.7 178.11 421.7 164.61C421.7 162.95 421.7 154.63 421.7 139.67C417.79 134.39 415.62 131.45 415.19 130.86C399.8 109.86 374.75 96.74 346.15 94.49C337.87 93.93 328.2 92.8 324.85 91.87C321.5 91.12 317.55 91.12 315.97 91.87C314.4 92.62 306.11 93.74 297.43 94.49Z" />
    <path
       id="ayBJiOi05"
       d="M415.41 134.64C415.41 160.78 375.41 182 326.14 182C276.86 182 236.86 160.78 236.86 134.64C236.86 108.5 276.86 87.27 326.14 87.27C375.41 87.27 415.41 108.5 415.41 134.64Z" />
    <path
       id="chbU28Aqc"
       d="M426.32 161.85C426.32 188.54 401.03 210.22 369.88 210.22C338.74 210.22 313.45 188.54 313.45 161.85C313.45 135.15 338.74 113.47 369.88 113.47C401.03 113.47 426.32 135.15 426.32 161.85Z" />
    <path
       id="aa7sCqhbN"
       d="M430.35 161.76C430.35 194.85 402.35 221.72 367.87 221.72C333.38 221.72 305.39 194.85 305.39 161.76C305.39 128.66 333.38 101.8 367.87 101.8C402.35 101.8 430.35 128.66 430.35 161.76Z" />
    <path
       id="h6NnjxbuWw"
       d="M430.35 453.12C430.35 491.18 399.66 522.08 361.87 522.08C324.07 522.08 293.38 491.18 293.38 453.12C293.38 415.06 324.07 384.16 361.87 384.16C399.66 384.16 430.35 415.06 430.35 453.12Z" />
  </defs>
  <g
     id="g35">
    <g
       id="g33">
      <g
         id="g15">
        <use
           id="use9"
           fill-opacity="1"
           fill="#000000"
           opacity="1"
           xlink:href="#elKwM4xuD" />
        <g
           id="g13">
          <use
             id="use11"
             stroke-opacity="0"
             stroke-width="1"
             stroke="#000000"
             fill-opacity="0"
             opacity="1"
             xlink:href="#elKwM4xuD" />
        </g>
      </g>
      <g
         id="g19">
        <use
           id="use17"
           fill-opacity="1"
           fill="#000000"
           opacity="1"
           xlink:href="#ayBJiOi05" />
      </g>
      <g
         id="g23">
        <use
           id="use21"
           fill-opacity="1"
           fill="#000000"
           opacity="1"
           xlink:href="#chbU28Aqc" />
      </g>
      <g
         id="g27">
        <use
           id="use25"
           fill-opacity="1"
           fill="#000000"
           opacity="1"
           xlink:href="#aa7sCqhbN" />
      </g>
      <g
         id="g31">
        <use
           id="use29"
           fill-opacity="1"
           fill="#000000"
           opacity="1"
           xlink:href="#h6NnjxbuWw" />
      </g>
    </g>
  </g>
</svg>
